<svg width="22" height="31" viewBox="0 0 22 31" fill="none" xmlns="http://www.w3.org/2000/svg">
<mask id="path-1-inside-1_2497_1377" fill="white">
<path d="M0 2C0 0.89543 0.895431 0 2 0H20C21.1046 0 22 0.89543 22 2V29C22 30.1046 21.1046 31 20 31H2C0.89543 31 0 30.1046 0 29V2Z"/>
</mask>
<path d="M0 2C0 0.89543 0.895431 0 2 0H20C21.1046 0 22 0.89543 22 2V29C22 30.1046 21.1046 31 20 31H2C0.89543 31 0 30.1046 0 29V2Z" fill="#E54125"/>
<path d="M0 0H22H0ZM22 31H0H22ZM2 31C-0.209139 31 -2 29.2091 -2 27V4C-2 1.79086 -0.209139 0 2 0C2 0 2 0.895431 2 2V29C2 30.1046 2 31 2 31ZM22 0V31V0Z" fill="#F77A32" mask="url(#path-1-inside-1_2497_1377)"/>
<path d="M5.808 30.128C5.08267 30.128 4.432 29.8613 3.856 29.328C3.28 28.7733 2.992 27.8453 2.992 26.544C2.992 25.6907 3.10933 24.7413 3.344 23.696C3.6 22.6507 3.89867 21.5733 4.24 20.464C4.60267 19.3333 4.96533 18.2453 5.328 17.2C5.69067 16.1547 5.98933 15.2053 6.224 14.352C6.45867 13.4987 6.576 12.8267 6.576 12.336C6.576 11.76 6.352 11.472 5.904 11.472C5.37067 11.472 4.86933 11.7813 4.4 12.4C3.93067 12.9973 3.408 13.84 2.832 14.928L2.64 14.864C2.64 13.1787 3.088 11.7173 3.984 10.48C4.88 9.22133 6.08533 8.25067 7.6 7.568C9.136 6.88533 10.8427 6.544 12.72 6.544C14.6187 6.544 16.1547 6.87467 17.328 7.536C18.5227 8.176 19.3973 9.01867 19.952 10.064C20.528 11.088 20.816 12.1867 20.816 13.36C20.816 14.3627 20.624 15.3653 20.24 16.368C19.8773 17.3493 19.344 18.2453 18.64 19.056C17.9573 19.8667 17.1467 20.5173 16.208 21.008C15.2693 21.4987 14.2347 21.744 13.104 21.744C11.9307 21.744 10.7147 21.4453 9.456 20.848C9.17867 21.8933 8.93333 22.96 8.72 24.048C8.50667 25.1147 8.4 26.2133 8.4 27.344C8.4 27.8987 8.432 28.4533 8.496 29.008C8.13333 29.3707 7.70667 29.648 7.216 29.84C6.74667 30.032 6.27733 30.128 5.808 30.128ZM10.928 18.544C11.7813 18.544 12.528 18.3093 13.168 17.84C13.808 17.3493 14.2987 16.7413 14.64 16.016C15.0027 15.2693 15.184 14.5227 15.184 13.776C15.184 12.9013 14.896 12.1227 14.32 11.44C13.7653 10.7573 12.848 10.416 11.568 10.416C11.3973 10.416 11.1947 10.4267 10.96 10.448C10.7467 10.4693 10.5227 10.5013 10.288 10.544C10.4587 11.0773 10.5653 11.6107 10.608 12.144C10.672 12.656 10.704 13.1573 10.704 13.648C10.704 14.5013 10.64 15.3227 10.512 16.112C10.384 16.9013 10.2347 17.68 10.064 18.448C10.3627 18.512 10.6507 18.544 10.928 18.544Z" fill="white"/>
</svg>
