<svg width="14" height="10" viewBox="0 0 14 10" fill="none" xmlns="http://www.w3.org/2000/svg">
<path d="M5.75 9.5C5.5375 9.5 5.35938 9.42854 5.21563 9.28563C5.07188 9.14271 5 8.96562 5 8.75438C5 8.54313 5.07188 8.36458 5.21563 8.21875C5.35938 8.07292 5.5375 8 5.75 8H8.25C8.4625 8 8.64063 8.07146 8.78438 8.21438C8.92813 8.35729 9 8.53438 9 8.74563C9 8.95688 8.92813 9.13542 8.78438 9.28125C8.64063 9.42708 8.4625 9.5 8.25 9.5H5.75ZM2.75 5.75C2.5375 5.75 2.35938 5.67854 2.21563 5.53562C2.07188 5.39271 2 5.21562 2 5.00437C2 4.79313 2.07188 4.61458 2.21563 4.46875C2.35938 4.32292 2.5375 4.25 2.75 4.25H11.25C11.4625 4.25 11.6406 4.32146 11.7844 4.46438C11.9281 4.60729 12 4.78438 12 4.99563C12 5.20688 11.9281 5.38542 11.7844 5.53125C11.6406 5.67708 11.4625 5.75 11.25 5.75H2.75ZM0.75 2C0.5375 2 0.359375 1.92854 0.215625 1.78563C0.0718751 1.64271 0 1.46563 0 1.25438C0 1.04313 0.0718751 0.864583 0.215625 0.71875C0.359375 0.572917 0.5375 0.5 0.75 0.5H13.25C13.4625 0.5 13.6406 0.571458 13.7844 0.714375C13.9281 0.857291 14 1.03437 14 1.24562C14 1.45687 13.9281 1.63542 13.7844 1.78125C13.6406 1.92708 13.4625 2 13.25 2H0.75Z" fill="white"/>
</svg>
