<svg width="24" height="24" viewBox="0 0 24 24" fill="none" xmlns="http://www.w3.org/2000/svg">
<path d="M3.00023 18C2.58357 18 2.28357 17.8167 2.10023 17.45C1.9169 17.0834 1.95023 16.7334 2.20023 16.4L6.20023 11.075C6.30023 10.9417 6.42107 10.8417 6.56273 10.775C6.7044 10.7084 6.85023 10.675 7.00023 10.675C7.15023 10.675 7.29607 10.7084 7.43773 10.775C7.5794 10.8417 7.70023 10.9417 7.80023 11.075L11.5002 16H19.0002L14.0002 9.35005L12.3002 11.6C12.1002 11.8667 11.8669 12.0042 11.6002 12.0125C11.3336 12.0209 11.1002 11.95 10.9002 11.8C10.7002 11.65 10.5669 11.4459 10.5002 11.1875C10.4336 10.9292 10.5002 10.6667 10.7002 10.4L13.2002 7.07505C13.3002 6.94172 13.4211 6.84172 13.5627 6.77505C13.7044 6.70838 13.8502 6.67505 14.0002 6.67505C14.1502 6.67505 14.2961 6.70838 14.4377 6.77505C14.5794 6.84172 14.7002 6.94172 14.8002 7.07505L21.8002 16.4C22.0502 16.7334 22.0836 17.0834 21.9002 17.45C21.7169 17.8167 21.4169 18 21.0002 18H3.00023ZM11.5002 16H19.0002H11.2002H12.9127H11.5002ZM5.00023 16H9.00023L7.00023 13.325L5.00023 16Z" fill="white"/>
</svg>
