<svg width="14" height="14" viewBox="0 0 14 14" fill="none" xmlns="http://www.w3.org/2000/svg">
<path d="M7.25437 14C7.04313 14 6.86458 13.9281 6.71875 13.7844C6.57292 13.6406 6.5 13.4625 6.5 13.25V9.75C6.5 9.5375 6.57146 9.35938 6.71438 9.21563C6.85729 9.07188 7.03438 9 7.24563 9C7.45688 9 7.63542 9.07188 7.78125 9.21563C7.92708 9.35938 8 9.5375 8 9.75V10.75H13.2442C13.4564 10.75 13.6354 10.8215 13.7812 10.9644C13.9271 11.1073 14 11.2844 14 11.4956C14 11.7069 13.9281 11.8854 13.7844 12.0312C13.6406 12.1771 13.4625 12.25 13.25 12.25H8V13.25C8 13.4625 7.92854 13.6406 7.78563 13.7844C7.64271 13.9281 7.46563 14 7.25437 14ZM0.75 12.25C0.5375 12.25 0.359375 12.1785 0.215625 12.0356C0.0718751 11.8927 0 11.7156 0 11.5044C0 11.2931 0.0718751 11.1146 0.215625 10.9688C0.359375 10.8229 0.5375 10.75 0.75 10.75H4.25C4.4625 10.75 4.64062 10.8215 4.78438 10.9644C4.92812 11.1073 5 11.2844 5 11.4956C5 11.7069 4.92812 11.8854 4.78438 12.0312C4.64062 12.1771 4.4625 12.25 4.25 12.25H0.75ZM3.75437 9.5C3.54312 9.5 3.36458 9.42813 3.21875 9.28438C3.07292 9.14062 3 8.9625 3 8.75V7.75H0.755417C0.543472 7.75 0.364583 7.67854 0.21875 7.53562C0.0729167 7.39271 0 7.21562 0 7.00437C0 6.79313 0.0718751 6.61458 0.215625 6.46875C0.359375 6.32292 0.5375 6.25 0.75 6.25H3V5.25C3 5.0375 3.07146 4.85937 3.21438 4.71562C3.35729 4.57187 3.53438 4.5 3.74563 4.5C3.95688 4.5 4.13542 4.57187 4.28125 4.71562C4.42708 4.85937 4.5 5.0375 4.5 5.25V8.75C4.5 8.9625 4.42854 9.14062 4.28562 9.28438C4.14271 9.42813 3.96563 9.5 3.75437 9.5ZM6.75 7.75C6.5375 7.75 6.35938 7.67854 6.21563 7.53562C6.07188 7.39271 6 7.21562 6 7.00437C6 6.79313 6.07188 6.61458 6.21563 6.46875C6.35938 6.32292 6.5375 6.25 6.75 6.25H13.25C13.4625 6.25 13.6406 6.32146 13.7844 6.46438C13.9281 6.60729 14 6.78438 14 6.99563C14 7.20688 13.9281 7.38542 13.7844 7.53125C13.6406 7.67708 13.4625 7.75 13.25 7.75H6.75ZM9.75438 5C9.54313 5 9.36458 4.92813 9.21875 4.78438C9.07292 4.64063 9 4.4625 9 4.25V0.75C9 0.5375 9.07146 0.359374 9.21437 0.215624C9.35729 0.0718745 9.53438 0 9.74562 0C9.95687 0 10.1354 0.0718745 10.2812 0.215624C10.4271 0.359374 10.5 0.5375 10.5 0.75V1.75H13.25C13.4625 1.75 13.6406 1.82146 13.7844 1.96437C13.9281 2.10729 14 2.28437 14 2.49562C14 2.70687 13.9281 2.88542 13.7844 3.03125C13.6406 3.17708 13.4625 3.25 13.25 3.25H10.5V4.25C10.5 4.4625 10.4285 4.64063 10.2856 4.78438C10.1427 4.92813 9.96563 5 9.75438 5ZM0.75 3.25C0.5375 3.25 0.359375 3.17854 0.215625 3.03563C0.0718751 2.89271 0 2.71563 0 2.50438C0 2.29313 0.0718751 2.11458 0.215625 1.96875C0.359375 1.82292 0.5375 1.75 0.75 1.75H7.25C7.4625 1.75 7.64063 1.82146 7.78438 1.96437C7.92813 2.10729 8 2.28437 8 2.49562C8 2.70687 7.92813 2.88542 7.78438 3.03125C7.64063 3.17708 7.4625 3.25 7.25 3.25H0.75Z" fill="white"/>
</svg>
