<svg width="166" height="70" viewBox="0 0 166 70" fill="none" xmlns="http://www.w3.org/2000/svg">
<path fill-rule="evenodd" clip-rule="evenodd" d="M85 31C93.2843 31 100 24.2843 100 16C100 7.71572 93.2843 1 85 1C76.7157 1 70.5 6.71573 70.5 15C70.5 23.2843 76.7157 31 85 31Z" fill="#E54125"/>
<path d="M126 11C126.696 12.5117 127.6 13.9163 128.572 13.847C129.816 13.7588 130.252 11.3338 131.426 11.3653C132.67 11.4031 132.941 14.1493 134.253 14.2816C135.624 14.4202 136.167 11.4976 137.692 11.4976C139.185 11.4913 139.69 14.269 141.167 14.3257C141.906 14.3572 142.852 13.7021 144 11.2645" stroke="#697D64" stroke-width="1.5" stroke-miterlimit="10" stroke-linecap="round"/>
<path d="M1 5C1.69619 6.51166 2.59964 7.91625 3.57219 7.84696C4.81576 7.75878 5.25155 5.33383 6.42604 5.36532C7.66962 5.40311 7.94065 8.1493 9.25332 8.28157C10.6244 8.42014 11.1665 5.49759 12.6918 5.49759C14.1851 5.4913 14.69 8.26897 16.1674 8.32566C16.9061 8.35715 17.8521 7.7021 19 5.26455" stroke="#697D64" stroke-width="1.5" stroke-miterlimit="10" stroke-linecap="round"/>
<path d="M78 29.7591C86.3325 24.3928 94.6683 19.0266 103.001 13.6572C103.483 13.3067 104.114 12.9938 104.845 13.0001C105.759 13.0095 106.431 13.5164 106.627 13.6572C107.96 14.6241 118.054 21.0886 132 30" stroke="#294023" stroke-width="2" stroke-miterlimit="10" stroke-linecap="round"/>
<path d="M10 24.6576C21.5734 17.08 33.1468 9.50495 44.7229 1.92731C45.3945 1.43477 46.267 0.989648 47.2881 1.00018C48.5596 1.01335 49.4927 1.72713 49.7596 1.92731C51.6119 3.29428 65.6294 12.418 85 25" stroke="#294023" stroke-width="2" stroke-miterlimit="10" stroke-linecap="round"/>
<path d="M5.76 59.16C4.85333 59.16 4.04 58.8267 3.32 58.16C2.6 57.4667 2.24 56.3067 2.24 54.68C2.24 53.6133 2.38667 52.4267 2.68 51.12C3 49.8133 3.37333 48.4667 3.8 47.08C4.25333 45.6667 4.70667 44.3067 5.16 43C5.61333 41.6933 5.98667 40.5067 6.28 39.44C6.57333 38.3733 6.72 37.5333 6.72 36.92C6.72 36.2 6.44 35.84 5.88 35.84C5.21333 35.84 4.58667 36.2267 4 37C3.41333 37.7467 2.76 38.8 2.04 40.16L1.8 40.08C1.8 37.9733 2.36 36.1467 3.48 34.6C4.6 33.0267 6.10667 31.8133 8 30.96C9.92 30.1067 12.0533 29.68 14.4 29.68C16.7733 29.68 18.6933 30.0933 20.16 30.92C21.6533 31.72 22.7467 32.7733 23.44 34.08C24.16 35.36 24.52 36.7333 24.52 38.2C24.52 39.4533 24.28 40.7067 23.8 41.96C23.3467 43.1867 22.68 44.3067 21.8 45.32C20.9467 46.3333 19.9333 47.1467 18.76 47.76C17.5867 48.3733 16.2933 48.68 14.88 48.68C13.4133 48.68 11.8933 48.3067 10.32 47.56C9.97333 48.8667 9.66667 50.2 9.4 51.56C9.13333 52.8933 9 54.2667 9 55.68C9 56.3733 9.04 57.0667 9.12 57.76C8.66667 58.2133 8.13333 58.56 7.52 58.8C6.93333 59.04 6.34667 59.16 5.76 59.16ZM12.16 44.68C13.2267 44.68 14.16 44.3867 14.96 43.8C15.76 43.1867 16.3733 42.4267 16.8 41.52C17.2533 40.5867 17.48 39.6533 17.48 38.72C17.48 37.6267 17.12 36.6533 16.4 35.8C15.7067 34.9467 14.56 34.52 12.96 34.52C12.7467 34.52 12.4933 34.5333 12.2 34.56C11.9333 34.5867 11.6533 34.6267 11.36 34.68C11.5733 35.3467 11.7067 36.0133 11.76 36.68C11.84 37.32 11.88 37.9467 11.88 38.56C11.88 39.6267 11.8 40.6533 11.64 41.64C11.48 42.6267 11.2933 43.6 11.08 44.56C11.4533 44.64 11.8133 44.68 12.16 44.68ZM33.5091 37.6C32.4424 37.6 31.5624 37.28 30.8691 36.64C30.2024 35.9733 29.8691 35.1467 29.8691 34.16C29.8691 33.0933 30.2691 32.1733 31.0691 31.4C31.8691 30.6267 32.8424 30.24 33.9891 30.24C35.0557 30.24 35.9224 30.5733 36.5891 31.24C37.2824 31.9067 37.6291 32.7333 37.6291 33.72C37.6291 34.7867 37.2291 35.7067 36.4291 36.48C35.6291 37.2267 34.6557 37.6 33.5091 37.6ZM30.7091 59.16C29.6691 59.16 28.7357 58.8 27.9091 58.08C27.0824 57.3333 26.6691 56.1467 26.6691 54.52C26.6691 53.5867 26.7891 52.72 27.0291 51.92C27.2957 51.0933 27.5891 50.2933 27.9091 49.52C28.2557 48.7467 28.5491 48 28.7891 47.28C29.0557 46.5333 29.1891 45.8 29.1891 45.08C29.1891 44.44 29.0824 43.9867 28.8691 43.72C28.6557 43.4267 28.4024 43.28 28.1091 43.28C27.6557 43.28 27.2157 43.5733 26.7891 44.16L26.5091 44C26.6157 42.9333 26.9491 42.0267 27.5091 41.28C28.0957 40.5067 28.8024 39.9067 29.6291 39.48C30.4824 39.0533 31.3224 38.84 32.1491 38.84C33.1624 38.84 34.0424 39.1733 34.7891 39.84C35.5357 40.48 35.9091 41.5333 35.9091 43C35.9091 43.88 35.7757 44.8133 35.5091 45.8C35.2691 46.76 34.9757 47.72 34.6291 48.68C34.3091 49.64 34.0157 50.5333 33.7491 51.36C33.5091 52.1867 33.3891 52.8933 33.3891 53.48C33.3891 53.9867 33.4824 54.3467 33.6691 54.56C33.8824 54.7733 34.1091 54.88 34.3491 54.88C34.5891 54.88 34.8157 54.8133 35.0291 54.68C35.2691 54.52 35.4424 54.3467 35.5491 54.16L35.8291 54.24C35.8291 55.2267 35.5624 56.0933 35.0291 56.84C34.5224 57.56 33.8824 58.1333 33.1091 58.56C32.3357 58.96 31.5357 59.16 30.7091 59.16ZM43.5597 59.12C42.573 59.12 41.6797 58.7333 40.8797 57.96C40.0797 57.16 39.6797 56.0533 39.6797 54.64C39.6797 53.9467 39.773 53.16 39.9597 52.28C40.1464 51.4 40.3464 50.5067 40.5597 49.6C40.7997 48.6933 41.013 47.84 41.1997 47.04C41.3864 46.24 41.4797 45.5867 41.4797 45.08C41.4797 44.5467 41.373 44.1333 41.1597 43.84C40.9464 43.52 40.6664 43.36 40.3197 43.36C39.8664 43.36 39.373 43.6267 38.8397 44.16L38.5997 44C38.573 43.5733 38.6664 43.0667 38.8797 42.48C39.093 41.8933 39.413 41.3333 39.8397 40.8C40.293 40.24 40.8664 39.7733 41.5597 39.4C42.253 39.0267 43.0797 38.84 44.0397 38.84C45.453 38.84 46.493 39.2533 47.1597 40.08C47.853 40.88 48.1997 41.8667 48.1997 43.04C48.1997 43.4667 48.1597 43.88 48.0797 44.28C48.6397 43.4533 49.333 42.6267 50.1597 41.8C50.9864 40.9467 51.893 40.24 52.8797 39.68C53.893 39.12 54.933 38.84 55.9997 38.84C57.253 38.84 58.1064 39.24 58.5597 40.04C59.013 40.84 59.2397 41.84 59.2397 43.04C59.2397 44.16 59.1197 45.36 58.8797 46.64C58.6397 47.92 58.3997 49.16 58.1597 50.36C57.9197 51.5333 57.7997 52.52 57.7997 53.32C57.7997 54.3867 58.1064 54.92 58.7197 54.92C59.0397 54.92 59.3197 54.8267 59.5597 54.64C59.7997 54.4267 59.9597 54.2267 60.0397 54.04L60.3197 54.16C60.3197 55.1467 60.0397 56.0133 59.4797 56.76C58.9464 57.5067 58.2664 58.0933 57.4397 58.52C56.613 58.92 55.773 59.12 54.9197 59.12C53.8797 59.12 52.9597 58.76 52.1597 58.04C51.3597 57.32 50.9597 56.1467 50.9597 54.52C50.9597 53.56 51.0797 52.52 51.3197 51.4C51.5864 50.28 51.8397 49.2 52.0797 48.16C52.3197 47.12 52.4397 46.2667 52.4397 45.6C52.4397 45.2 52.3597 44.8933 52.1997 44.68C52.0664 44.44 51.813 44.32 51.4397 44.32C50.8264 44.32 50.1464 44.6 49.3997 45.16C48.6797 45.72 48.053 46.4667 47.5197 47.4C47.013 48.3333 46.7597 49.36 46.7597 50.48C46.7597 51.2 46.8397 51.8933 46.9997 52.56C47.1864 53.2267 47.2797 53.9467 47.2797 54.72C47.2797 56.16 46.9064 57.2533 46.1597 58C45.413 58.7467 44.5464 59.12 43.5597 59.12ZM70.6363 67C69.3029 67 68.2229 66.5867 67.3963 65.76C66.5963 64.96 66.1963 63.8667 66.1963 62.48C66.1963 61.76 66.3163 60.96 66.5563 60.08C66.8229 59.2267 67.2496 58.32 67.8363 57.36C66.5296 57.28 65.4496 56.84 64.5963 56.04C63.7696 55.24 63.3563 54.0267 63.3563 52.4C63.3563 51.44 63.4763 50.4133 63.7163 49.32C63.9829 48.2 64.2363 47.16 64.4763 46.2C64.7163 45.2133 64.8363 44.4533 64.8363 43.92C64.8363 43.52 64.7563 43.24 64.5963 43.08C64.4363 42.8933 64.2496 42.8 64.0363 42.8C63.8229 42.8 63.5829 42.8933 63.3163 43.08C63.0763 43.24 62.8896 43.4933 62.7563 43.84L62.0763 43.12C62.2363 42.2933 62.5829 41.56 63.1163 40.92C63.6496 40.28 64.3029 39.7733 65.0763 39.4C65.8496 39.0267 66.6496 38.84 67.4763 38.84C68.4096 38.84 69.2229 39.1467 69.9163 39.76C70.6096 40.3467 70.9563 41.4267 70.9563 43C70.9563 43.9867 70.8363 45.0533 70.5963 46.2C70.3563 47.32 70.1163 48.3867 69.8763 49.4C69.6363 50.3867 69.5163 51.1733 69.5163 51.76C69.5163 52.2933 69.6229 52.6933 69.8363 52.96C70.0763 53.2 70.3429 53.32 70.6363 53.32C71.0096 53.32 71.4363 53.12 71.9163 52.72C72.3963 52.2933 72.8496 51.6 73.2763 50.64C73.7029 49.68 73.9829 48.3867 74.1163 46.76C74.1696 46.2533 74.2096 45.6133 74.2363 44.84C74.2629 44.04 74.2896 43.3067 74.3163 42.64C74.3429 41.9467 74.3563 41.52 74.3563 41.36C74.3563 40.4 74.7029 39.7333 75.3963 39.36C76.1163 38.96 76.9029 38.76 77.7563 38.76C78.5029 38.76 79.2096 38.9067 79.8763 39.2C80.5429 39.4933 80.9963 39.9867 81.2363 40.68L81.3163 40.92C81.0763 41.1333 80.8629 41.8533 80.6763 43.08C80.5163 44.3067 80.3163 45.9467 80.0763 48C79.9163 49.3333 79.7163 50.84 79.4763 52.52C79.2363 54.2 78.9029 55.8933 78.4763 57.6C78.0763 59.28 77.5296 60.8267 76.8363 62.24C76.1696 63.68 75.3296 64.8267 74.3163 65.68C73.3029 66.56 72.0763 67 70.6363 67ZM69.6763 62.4C70.5029 62.4 71.2363 61.64 71.8763 60.12C72.5429 58.6267 73.0629 56.4933 73.4363 53.72C71.7296 55.9067 70.5563 57.6267 69.9163 58.88C69.2763 60.1333 68.9563 61.04 68.9563 61.6C68.9563 62.1333 69.1963 62.4 69.6763 62.4ZM97.6194 59.2C96.686 59.2 95.8727 58.8933 95.1794 58.28C94.486 57.6667 94.1394 56.6667 94.1394 55.28C94.1394 55.1467 94.1394 55.0133 94.1394 54.88C94.1394 54.7467 94.1527 54.6133 94.1794 54.48C93.3794 56.08 92.4727 57.2667 91.4594 58.04C90.4727 58.7867 89.4727 59.16 88.4594 59.16C87.526 59.16 86.646 58.84 85.8194 58.2C84.9927 57.5333 84.326 56.56 83.8194 55.28C83.3127 54 83.0594 52.4533 83.0594 50.64C83.0594 48.7733 83.3127 47.1067 83.8194 45.64C84.3527 44.1733 85.046 42.9333 85.8994 41.92C86.7527 40.9067 87.686 40.1467 88.6994 39.64C89.7127 39.1067 90.6994 38.84 91.6594 38.84C92.726 38.84 93.686 39.1733 94.5394 39.84C95.3927 40.48 95.9794 41.5067 96.2994 42.92C96.3794 42.4667 96.4327 42.0533 96.4594 41.68C96.5127 41.3067 96.5394 41.0533 96.5394 40.92C96.566 40.2 96.926 39.6667 97.6194 39.32C98.3394 38.9733 99.126 38.8 99.9794 38.8C100.726 38.8 101.433 38.9467 102.099 39.24C102.766 39.5333 103.219 40.0267 103.459 40.72L103.539 40.96C103.219 41.68 102.899 42.5467 102.579 43.56C102.259 44.5733 101.966 45.64 101.699 46.76C101.433 47.8533 101.219 48.9333 101.059 50C100.899 51.04 100.819 51.96 100.819 52.76C100.819 53.64 100.913 54.2533 101.099 54.6C101.286 54.92 101.513 55.08 101.779 55.08C102.233 55.08 102.646 54.76 103.019 54.12L103.339 54.28C103.339 55.1867 103.046 56.0133 102.459 56.76C101.873 57.5067 101.139 58.1067 100.259 58.56C99.3794 58.9867 98.4994 59.2 97.6194 59.2ZM91.0994 54.12C91.7927 54.12 92.5527 53.5067 93.3794 52.28C94.2327 51.0267 94.966 49.24 95.5794 46.92C95.6327 46.68 95.686 46.4533 95.7394 46.24C95.7927 46 95.8327 45.7733 95.8594 45.56C95.4327 44.5733 94.9794 43.88 94.4994 43.48C94.046 43.0533 93.5927 42.84 93.1394 42.84C92.4727 42.84 91.846 43.2 91.2594 43.92C90.6994 44.6133 90.2327 45.4933 89.8594 46.56C89.5127 47.6267 89.3394 48.6933 89.3394 49.76C89.3394 51.2267 89.4994 52.32 89.8194 53.04C90.166 53.76 90.5927 54.12 91.0994 54.12ZM109.474 67C108.807 67 108.167 66.8267 107.554 66.48C106.967 66.1333 106.474 65.5733 106.074 64.8C105.7 64.0267 105.514 62.9867 105.514 61.68C105.514 60.4267 105.674 59.0667 105.994 57.6C106.34 56.1333 106.727 54.6667 107.154 53.2C107.58 51.7067 107.954 50.2933 108.274 48.96C108.62 47.6267 108.794 46.44 108.794 45.4C108.794 44.6267 108.687 44.1067 108.474 43.84C108.26 43.5467 108.007 43.4 107.714 43.4C107.447 43.4 107.18 43.48 106.914 43.64C106.647 43.8 106.42 43.9867 106.234 44.2L105.954 44.04C105.954 43.1067 106.22 42.2533 106.754 41.48C107.314 40.68 108.02 40.04 108.874 39.56C109.727 39.08 110.607 38.84 111.514 38.84C112.394 38.84 113.1 39.0667 113.634 39.52C114.167 39.9467 114.567 40.5067 114.834 41.2C115.127 41.8933 115.3 42.64 115.354 43.44C116.367 41.84 117.474 40.6533 118.674 39.88C119.874 39.1067 121.007 38.72 122.074 38.72C123.514 38.72 124.727 39.4 125.714 40.76C126.727 42.12 127.234 44.2267 127.234 47.08C127.234 49.7467 126.807 51.9867 125.954 53.8C125.1 55.5867 124.02 56.9333 122.714 57.84C121.434 58.72 120.127 59.16 118.794 59.16C117.647 59.16 116.58 58.8267 115.594 58.16C114.634 57.4667 113.887 56.4667 113.354 55.16C113.114 56.2533 112.9 57.3333 112.714 58.4C112.554 59.4667 112.474 60.5067 112.474 61.52C112.474 62.08 112.5 62.6267 112.554 63.16C112.634 63.6933 112.754 64.2267 112.914 64.76V65C112.567 65.6667 112.074 66.16 111.434 66.48C110.82 66.8267 110.167 67 109.474 67ZM116.834 55.28C117.474 55.28 118.034 55.0267 118.514 54.52C118.994 54.0133 119.407 53.36 119.754 52.56C120.1 51.7333 120.354 50.8533 120.514 49.92C120.7 48.9867 120.794 48.08 120.794 47.2C120.794 46.08 120.647 45.1333 120.354 44.36C120.06 43.56 119.607 43.16 118.994 43.16C118.22 43.16 117.354 43.9467 116.394 45.52C115.434 47.0667 114.687 49.4267 114.154 52.6C114.394 53.4267 114.754 54.08 115.234 54.56C115.714 55.04 116.247 55.28 116.834 55.28ZM144.221 59.2C143.288 59.2 142.474 58.8933 141.781 58.28C141.088 57.6667 140.741 56.6667 140.741 55.28C140.741 55.1467 140.741 55.0133 140.741 54.88C140.741 54.7467 140.754 54.6133 140.781 54.48C139.981 56.08 139.074 57.2667 138.061 58.04C137.074 58.7867 136.074 59.16 135.061 59.16C134.128 59.16 133.248 58.84 132.421 58.2C131.594 57.5333 130.928 56.56 130.421 55.28C129.914 54 129.661 52.4533 129.661 50.64C129.661 48.7733 129.914 47.1067 130.421 45.64C130.954 44.1733 131.648 42.9333 132.501 41.92C133.354 40.9067 134.288 40.1467 135.301 39.64C136.314 39.1067 137.301 38.84 138.261 38.84C139.328 38.84 140.288 39.1733 141.141 39.84C141.994 40.48 142.581 41.5067 142.901 42.92C142.981 42.4667 143.034 42.0533 143.061 41.68C143.114 41.3067 143.141 41.0533 143.141 40.92C143.168 40.2 143.528 39.6667 144.221 39.32C144.941 38.9733 145.728 38.8 146.581 38.8C147.328 38.8 148.034 38.9467 148.701 39.24C149.368 39.5333 149.821 40.0267 150.061 40.72L150.141 40.96C149.821 41.68 149.501 42.5467 149.181 43.56C148.861 44.5733 148.568 45.64 148.301 46.76C148.034 47.8533 147.821 48.9333 147.661 50C147.501 51.04 147.421 51.96 147.421 52.76C147.421 53.64 147.514 54.2533 147.701 54.6C147.888 54.92 148.114 55.08 148.381 55.08C148.834 55.08 149.248 54.76 149.621 54.12L149.941 54.28C149.941 55.1867 149.648 56.0133 149.061 56.76C148.474 57.5067 147.741 58.1067 146.861 58.56C145.981 58.9867 145.101 59.2 144.221 59.2ZM137.701 54.12C138.394 54.12 139.154 53.5067 139.981 52.28C140.834 51.0267 141.568 49.24 142.181 46.92C142.234 46.68 142.288 46.4533 142.341 46.24C142.394 46 142.434 45.7733 142.461 45.56C142.034 44.5733 141.581 43.88 141.101 43.48C140.648 43.0533 140.194 42.84 139.741 42.84C139.074 42.84 138.448 43.2 137.861 43.92C137.301 44.6133 136.834 45.4933 136.461 46.56C136.114 47.6267 135.941 48.6933 135.941 49.76C135.941 51.2267 136.101 52.32 136.421 53.04C136.768 53.76 137.194 54.12 137.701 54.12ZM158.153 59.16C157.3 59.16 156.487 58.9733 155.713 58.6C154.967 58.2 154.353 57.5867 153.873 56.76C153.42 55.9333 153.193 54.88 153.193 53.6C153.193 52.9067 153.26 52 153.393 50.88C153.527 49.76 153.7 48.5333 153.913 47.2C154.153 45.8667 154.393 44.5333 154.633 43.2C154.1 43.2267 153.58 43.28 153.073 43.36C152.593 43.44 152.113 43.5333 151.633 43.64L151.553 43.36C152.087 42.72 152.647 42.1733 153.233 41.72C153.82 41.2667 154.433 40.8933 155.073 40.6C155.42 38.84 155.713 37.32 155.953 36.04C156.193 34.7333 156.313 33.96 156.313 33.72C156.313 33.2667 156.66 32.8933 157.353 32.6C158.073 32.3067 158.873 32.16 159.753 32.16C160.527 32.16 161.247 32.3067 161.913 32.6C162.607 32.8933 163.073 33.3867 163.313 34.08C163.153 34.24 162.927 34.84 162.633 35.88C162.34 36.8933 162.033 38.1333 161.713 39.6C162.22 39.6267 162.74 39.6533 163.273 39.68C163.807 39.7067 164.353 39.7467 164.913 39.8C164.967 39.96 165.007 40.1333 165.033 40.32C165.06 40.5067 165.073 40.7067 165.073 40.92C165.073 41.32 165.007 41.76 164.873 42.24C164.767 42.6933 164.633 43.1067 164.473 43.48C163.833 43.4267 163.233 43.3733 162.673 43.32C162.113 43.24 161.567 43.1867 161.033 43.16C160.82 44.3067 160.62 45.4533 160.433 46.6C160.273 47.7467 160.14 48.7867 160.033 49.72C159.953 50.6533 159.913 51.3867 159.913 51.92C159.913 53.04 160.113 53.7867 160.513 54.16C160.94 54.5333 161.447 54.72 162.033 54.72C162.567 54.72 163.047 54.6133 163.473 54.4C163.9 54.1867 164.207 53.9333 164.393 53.64L164.793 53.76C164.633 54.8533 164.207 55.8133 163.513 56.64C162.82 57.44 161.993 58.0667 161.033 58.52C160.073 58.9467 159.113 59.16 158.153 59.16Z" fill="#AB2C23"/>
</svg>
