<svg width="158" height="57" viewBox="0 0 158 57" fill="none" xmlns="http://www.w3.org/2000/svg">
<path d="M98 31.5742C106.284 31.5742 113 24.8585 113 16.5742C113 8.28994 106.284 1.57422 98 1.57422C89.7157 1.57422 83 8.28994 83 16.5742C83 24.8585 89.7157 31.5742 98 31.5742Z" fill="#E54125"/>
<path d="M139 11.5742C139.696 13.0859 140.6 14.4905 141.572 14.4212C142.816 14.333 143.252 11.9081 144.426 11.9395C145.67 11.9773 145.941 14.7235 147.253 14.8558C148.624 14.9944 149.167 12.0718 150.692 12.0718C152.185 12.0655 152.69 14.8432 154.167 14.8999C154.906 14.9314 155.852 14.2763 157 11.8388" stroke="#697D64" stroke-width="1.5" stroke-miterlimit="10" stroke-linecap="round"/>
<path d="M14 5.57422C14.6962 7.08588 15.5996 8.49047 16.5722 8.42118C17.8158 8.333 18.2515 5.90804 19.426 5.93954C20.6696 5.97733 20.9407 8.72352 22.2533 8.85579C23.6244 8.99435 24.1665 6.07181 25.6918 6.07181C27.1851 6.06551 27.69 8.84319 29.1674 8.89988C29.9061 8.93137 30.8521 8.27632 32 5.83877" stroke="#697D64" stroke-width="1.5" stroke-miterlimit="10" stroke-linecap="round"/>
<path d="M91 30.3333C99.3325 24.967 107.668 19.6008 116.001 14.2314C116.483 13.881 117.114 13.5681 117.845 13.5743C118.759 13.5837 119.431 14.0906 119.627 14.2314C120.96 15.1983 131.054 21.6628 145 30.5742" stroke="#294023" stroke-width="2" stroke-miterlimit="10" stroke-linecap="round"/>
<path d="M23 25.2318C34.5734 17.6542 46.1468 10.0792 57.7229 2.50153C58.3945 2.00899 59.267 1.56387 60.2881 1.5744C61.5596 1.58757 62.4927 2.30135 62.7596 2.50153C64.6119 3.8685 78.6294 12.9922 98 25.5742" stroke="#294023" stroke-width="2" stroke-miterlimit="10" stroke-linecap="round"/>
<path d="M3.47656 22.621C3.47656 21.5794 2.77344 21.0585 1.36719 21.0585C0.481771 21.0585 0.0390625 20.7656 0.0390625 20.1796C0.0390625 19.6197 0.481771 19.3398 1.36719 19.3398C1.875 19.3398 2.44141 19.3984 3.06641 19.5156C3.69141 19.6197 4.21875 19.6718 4.64844 19.6718C5.01302 19.6718 5.64453 19.6002 6.54297 19.457C7.44141 19.3007 8.51562 19.2226 9.76562 19.2226C12.8385 19.2226 15.1953 19.9322 16.8359 21.3515C18.4896 22.7578 19.3164 24.4374 19.3164 26.3906C19.3164 27.927 18.9323 29.1054 18.1641 29.9257C17.4089 30.746 16.3542 31.4752 15 32.1132C13.6589 32.7512 11.901 33.0703 9.72656 33.0703C8.46354 33.0703 7.83203 32.6926 7.83203 31.9374C7.83203 31.7421 7.91667 31.5859 8.08594 31.4687C8.26823 31.3385 8.50911 31.2734 8.80859 31.2734C8.8737 31.2734 9.08854 31.2864 9.45312 31.3124C9.81771 31.3385 10.1497 31.3515 10.4492 31.3515C11.8555 31.3515 13.0143 30.9153 13.9258 30.0429C14.8503 29.1705 15.3125 27.9531 15.3125 26.3906C15.3125 24.9192 14.7461 23.6236 13.6133 22.5038C12.4805 21.3841 10.957 20.8242 9.04297 20.8242C8.35286 20.8242 7.85807 20.9218 7.55859 21.1171C7.27214 21.2994 7.08984 21.5729 7.01172 21.9374C6.94661 22.289 6.91406 22.8619 6.91406 23.6562V44.4179C6.91406 45.4335 7.57161 45.9413 8.88672 45.9413C9.52474 45.9413 9.94792 46.026 10.1562 46.1953C10.3776 46.3645 10.4883 46.6119 10.4883 46.9374C10.4883 47.4713 9.95443 47.7382 8.88672 47.7382C8.54818 47.7382 7.91016 47.6145 6.97266 47.3671C6.04818 47.1067 5.45573 46.9765 5.19531 46.9765C4.80469 46.9765 4.22526 47.1067 3.45703 47.3671C2.70182 47.6145 2.17448 47.7382 1.875 47.7382C0.755208 47.7382 0.195312 47.4062 0.195312 46.7421C0.195312 46.5598 0.253906 46.4101 0.371094 46.2929C0.501302 46.1627 0.924479 46.0716 1.64062 46.0195C2.36979 45.9544 2.85807 45.7135 3.10547 45.2968C3.35286 44.8671 3.47656 44.3658 3.47656 43.7929V22.621ZM24.5703 27.4648C25.1693 27.4648 25.6836 27.6861 26.1133 28.1288C26.556 28.5585 26.7773 29.0729 26.7773 29.6718C26.7773 30.2057 26.5625 30.6614 26.1328 31.039C25.7031 31.4036 25.1953 31.5859 24.6094 31.5859C24.0234 31.5859 23.5156 31.3841 23.0859 30.9804C22.6693 30.5637 22.4609 30.0689 22.4609 29.496C22.4609 28.9492 22.6693 28.4739 23.0859 28.0703C23.5156 27.6666 24.0104 27.4648 24.5703 27.4648ZM26.1328 44.457C26.1328 45.095 26.25 45.5117 26.4844 45.707C26.7188 45.9023 27.0312 46.0325 27.4219 46.0976C27.8125 46.1497 28.0859 46.2278 28.2422 46.332C28.4115 46.4361 28.4961 46.651 28.4961 46.9765C28.4961 47.4062 28.1185 47.621 27.3633 47.621C27.0378 47.621 26.5495 47.582 25.8984 47.5038C25.2474 47.4257 24.7656 47.3867 24.4531 47.3867C24.1406 47.3867 23.6849 47.4387 23.0859 47.5429C22.487 47.6471 22.0378 47.6992 21.7383 47.6992C21.4388 47.6992 21.1784 47.6145 20.957 47.4453C20.7487 47.276 20.6445 47.0546 20.6445 46.7812C20.6445 46.6119 20.7031 46.4687 20.8203 46.3515C20.9375 46.2213 21.237 46.1171 21.7188 46.039C22.2005 45.9609 22.5326 45.8046 22.7148 45.5703C22.9102 45.3359 23.0078 44.7695 23.0078 43.871V37.2695C23.0078 36.7096 22.8906 36.3385 22.6562 36.1562C22.4219 35.9739 22.0768 35.8372 21.6211 35.746C21.1654 35.6549 20.8789 35.5377 20.7617 35.3945C20.6576 35.2512 20.6055 35.0755 20.6055 34.8671C20.6055 34.6328 20.6966 34.4439 20.8789 34.3007C21.0742 34.1445 21.3021 34.0663 21.5625 34.0663C21.7839 34.0663 22.0964 34.1119 22.5 34.2031C22.9167 34.2942 23.2227 34.3398 23.418 34.3398C23.6393 34.3398 23.9779 34.3072 24.4336 34.2421C24.8893 34.177 25.2279 34.1445 25.4492 34.1445C25.931 34.1445 26.1719 34.5481 26.1719 35.3554C26.1719 35.4856 26.1654 35.6614 26.1523 35.8828C26.1393 36.0911 26.1328 36.2343 26.1328 36.3124V44.457ZM45.1758 44.789C45.1758 45.3489 45.2669 45.72 45.4492 45.9023C45.6445 46.0716 45.9831 46.2148 46.4648 46.332C46.9596 46.4361 47.207 46.638 47.207 46.9374C47.207 47.3411 46.9661 47.5429 46.4844 47.5429C46.3932 47.5429 46.0026 47.5234 45.3125 47.4843C44.6224 47.4453 44.043 47.4257 43.5742 47.4257C42.793 47.4257 42.1354 47.4713 41.6016 47.5624C41.0677 47.6536 40.7227 47.6992 40.5664 47.6992C40.332 47.6992 40.1107 47.621 39.9023 47.4648C39.707 47.3085 39.6094 47.1197 39.6094 46.8984C39.6094 46.7291 39.694 46.5729 39.8633 46.4296C40.0326 46.2734 40.2279 46.1953 40.4492 46.1953C40.8659 46.1953 41.237 46.0781 41.5625 45.8437C41.888 45.5963 42.0508 45.2317 42.0508 44.7499C42.0508 41.6119 42.0703 39.6718 42.1094 38.9296C42.1484 38.1744 42.168 37.7512 42.168 37.6601C42.168 36.6445 41.6992 36.1367 40.7617 36.1367C40.3581 36.1367 39.7786 36.4492 39.0234 37.0742C38.2812 37.6861 37.7539 37.9921 37.4414 37.9921C37.3372 37.9921 37.2201 37.927 37.0898 37.7968C36.9596 37.6666 36.8945 37.5299 36.8945 37.3867C36.8945 36.9309 37.4935 36.2343 38.6914 35.2968C39.8893 34.3463 41.0612 33.871 42.207 33.871C42.8841 33.871 43.4701 34.0468 43.9648 34.3984C44.4596 34.7369 44.7852 35.1666 44.9414 35.6874C45.1107 36.2083 45.1953 36.9439 45.1953 37.8945L45.1758 39.1445V44.789ZM33.2031 37.2695C33.2031 36.7877 33.1055 36.4296 32.9102 36.1953C32.7279 35.9479 32.3372 35.7721 31.7383 35.6679C31.1393 35.5637 30.8398 35.2968 30.8398 34.8671C30.8398 34.6848 30.944 34.5091 31.1523 34.3398C31.3607 34.1575 31.6341 34.0663 31.9727 34.0663C32.1159 34.0663 32.3633 34.1119 32.7148 34.2031C33.0794 34.2942 33.3789 34.3398 33.6133 34.3398C33.7565 34.3398 34.082 34.3007 34.5898 34.2226C35.1107 34.1445 35.4362 34.1054 35.5664 34.1054C35.8268 34.1054 36.0091 34.2161 36.1133 34.4374C36.2174 34.6458 36.276 35.0755 36.2891 35.7265C36.3151 36.8072 36.3281 37.9596 36.3281 39.1835L36.2109 44.7499C36.2109 45.1536 36.2435 45.401 36.3086 45.4921C36.3737 45.5833 36.5234 45.7005 36.7578 45.8437C37.0052 45.9869 37.3177 46.0976 37.6953 46.1757C38.0729 46.2538 38.3138 46.3645 38.418 46.5078C38.5221 46.638 38.5742 46.7942 38.5742 46.9765C38.5742 47.4062 38.2357 47.621 37.5586 47.621C37.0898 47.621 36.6081 47.582 36.1133 47.5038C35.6185 47.4257 35.1302 47.3867 34.6484 47.3867C34.2578 47.3867 33.75 47.4192 33.125 47.4843C32.513 47.5494 32.0573 47.582 31.7578 47.582C31.0938 47.582 30.7617 47.3411 30.7617 46.8593C30.7617 46.651 30.8203 46.4817 30.9375 46.3515C31.0547 46.2213 31.3086 46.1432 31.6992 46.1171C32.1419 46.0911 32.4154 46.026 32.5195 45.9218C32.819 45.6093 33.0078 45.3359 33.0859 45.1015C33.1641 44.8671 33.2031 44.3854 33.2031 43.6562V37.2695ZM63.6328 34.1835C64.0885 34.1835 64.3164 34.5025 64.3164 35.1406C64.3164 36.4036 64.3359 38.246 64.375 40.6679C64.4141 43.0898 64.4336 44.7174 64.4336 45.5507C64.4336 48.4674 64.0951 50.5507 63.418 51.8007C62.7409 53.0637 62.0117 53.9426 61.2305 54.4374C60.4622 54.9322 59.5182 55.1796 58.3984 55.1796C57.4479 55.1796 56.6927 55.0429 56.1328 54.7695C55.5859 54.496 55.3125 54.2486 55.3125 54.0273C55.3125 53.9231 55.3646 53.8059 55.4688 53.6757C55.5729 53.5585 55.6966 53.4999 55.8398 53.4999C55.944 53.4999 56.1523 53.565 56.4648 53.6953C56.7904 53.8385 57.1549 53.9101 57.5586 53.9101C58.2878 53.9101 58.9974 53.6627 59.6875 53.1679C60.3906 52.6861 60.8398 52.0156 61.0352 51.1562C61.2435 50.2968 61.3477 49.0143 61.3477 47.3085C61.3477 41.1887 61.3281 37.7838 61.2891 37.0937C61.263 36.4036 60.7812 35.9869 59.8438 35.8437C58.9062 35.6874 58.4375 35.3749 58.4375 34.9062C58.4375 34.4244 58.7695 34.1835 59.4336 34.1835C59.6549 34.1835 60.0521 34.2226 60.625 34.3007C61.2109 34.3788 61.6927 34.4179 62.0703 34.4179C62.3568 34.4179 62.6562 34.3788 62.9688 34.3007C63.2812 34.2226 63.5026 34.1835 63.6328 34.1835ZM60 45.0624C60.3385 45.0624 60.5078 45.2252 60.5078 45.5507C60.5078 45.9544 59.987 46.4557 58.9453 47.0546C57.9036 47.6536 56.8685 47.9531 55.8398 47.9531C55.1367 47.9531 54.3815 47.7187 53.5742 47.2499C52.7669 46.7682 52.2591 46.1757 52.0508 45.4726C51.8555 44.7564 51.7578 43.4739 51.7578 41.6249L51.7969 37.6992C51.7969 36.6445 51.3281 36.0195 50.3906 35.8242C49.8438 35.72 49.4922 35.6223 49.3359 35.5312C49.1927 35.427 49.1211 35.2317 49.1211 34.9453C49.1211 34.7369 49.1797 34.5611 49.2969 34.4179C49.4141 34.2617 49.5703 34.1835 49.7656 34.1835C49.9479 34.1835 50.319 34.2486 50.8789 34.3788C51.4388 34.496 51.7969 34.5546 51.9531 34.5546C52.1354 34.5546 52.513 34.496 53.0859 34.3788C53.6589 34.2486 54.0169 34.1835 54.1602 34.1835C54.2513 34.1835 54.362 34.2291 54.4922 34.3203C54.6224 34.4114 54.694 34.5091 54.707 34.6132C54.7331 34.7174 54.7591 35.6223 54.7852 37.3281C54.8242 39.0338 54.8438 40.6028 54.8438 42.0351C54.8438 43.1288 54.8828 43.9231 54.9609 44.4179C55.0391 44.8997 55.2799 45.2968 55.6836 45.6093C56.1003 45.9088 56.6471 46.0585 57.3242 46.0585C57.832 46.0585 58.3594 45.8958 58.9062 45.5703C59.4531 45.2317 59.8177 45.0624 60 45.0624ZM82.7344 44.1835C82.7344 45.121 83.3594 45.7721 84.6094 46.1367C84.9219 46.2278 85.1497 46.332 85.293 46.4492C85.4492 46.5663 85.5273 46.7877 85.5273 47.1132C85.5273 47.2825 85.4232 47.4257 85.2148 47.5429C85.0195 47.6731 84.8047 47.7382 84.5703 47.7382C84.3229 47.7382 83.9844 47.6796 83.5547 47.5624C83.138 47.4453 82.7995 47.3867 82.5391 47.3867C82.2396 47.3867 81.862 47.4453 81.4062 47.5624C80.9505 47.6796 80.6445 47.7382 80.4883 47.7382C80.306 47.7382 80.1237 47.6731 79.9414 47.5429C79.7721 47.4127 79.6875 47.2825 79.6875 47.1523C79.6875 46.9439 79.6224 46.8398 79.4922 46.8398C79.401 46.8398 79.2839 46.8854 79.1406 46.9765C77.6693 47.888 76.0807 48.3437 74.375 48.3437C73.5677 48.3437 72.6628 48.1354 71.6602 47.7187C70.6706 47.302 69.8763 46.664 69.2773 45.8046C68.6784 44.9322 68.3789 43.858 68.3789 42.582C68.3789 41.2278 69.0234 40.0299 70.3125 38.9882C71.6146 37.9466 73.2878 37.4257 75.332 37.4257C76.0221 37.4257 76.7773 37.621 77.5977 38.0117C78.431 38.3893 78.8477 38.7799 78.8477 39.1835C78.8477 39.3788 78.763 39.5351 78.5938 39.6523C78.4245 39.7695 78.2161 39.8281 77.9688 39.8281C77.7995 39.8281 77.4674 39.7109 76.9727 39.4765C76.4779 39.2291 75.9701 39.1054 75.4492 39.1054C74.3815 39.1054 73.4961 39.4244 72.793 40.0624C72.0898 40.6874 71.7383 41.5273 71.7383 42.582C71.7383 43.8059 72.1419 44.7499 72.9492 45.414C73.7565 46.065 74.6875 46.3906 75.7422 46.3906C76.6927 46.3906 77.5651 46.0781 78.3594 45.4531C79.1667 44.8281 79.5703 43.9947 79.5703 42.9531V37.6601C79.5703 36.8658 79.3034 36.2213 78.7695 35.7265C78.2487 35.2317 77.5456 34.9843 76.6602 34.9843C75.5273 34.9843 74.4271 35.3424 73.3594 36.0585C72.9948 36.3059 72.7474 36.4296 72.6172 36.4296C72.3047 36.4296 72.0378 36.3515 71.8164 36.1953C71.5951 36.026 71.4844 35.8111 71.4844 35.5507C71.4844 34.9127 72.0638 34.3723 73.2227 33.9296C74.3945 33.4869 75.6706 33.2656 77.0508 33.2656C78.7565 33.2656 80.1302 33.6953 81.1719 34.5546C82.2135 35.414 82.7344 36.4361 82.7344 37.621V44.1835ZM89.6875 50.5507C89.7656 49.8085 89.8047 47.7512 89.8047 44.3788C89.8047 42.7512 89.7656 40.3749 89.6875 37.2499C89.6615 36.9244 89.5247 36.6445 89.2773 36.4101C89.043 36.1627 88.5417 35.9739 87.7734 35.8437C87.1875 35.7525 86.8034 35.6419 86.6211 35.5117C86.4518 35.3814 86.3672 35.2187 86.3672 35.0234C86.3672 34.5156 86.7708 34.2617 87.5781 34.2617C87.7344 34.2617 88.1185 34.3268 88.7305 34.457C89.3424 34.5742 89.7266 34.6328 89.8828 34.6328C90.0521 34.6328 90.4036 34.5611 90.9375 34.4179C91.4714 34.2617 91.8034 34.1835 91.9336 34.1835C92.2852 34.1835 92.5065 34.2617 92.5977 34.4179C92.6888 34.5742 92.7344 34.815 92.7344 35.1406V42.0351C92.7344 43.4413 93.1771 44.5611 94.0625 45.3945C94.9479 46.2148 95.9831 46.6249 97.168 46.6249C97.7409 46.6249 98.4701 46.3775 99.3555 45.8828C100.254 45.3749 100.951 44.6458 101.445 43.6953C101.953 42.7447 102.207 41.6705 102.207 40.4726C102.207 39.0533 101.771 37.7903 100.898 36.6835C100.039 35.5768 99.0365 35.0234 97.8906 35.0234C97.2005 35.0234 96.5625 35.1536 95.9766 35.414C95.4036 35.6614 95.026 35.7851 94.8438 35.7851C94.6615 35.7851 94.4987 35.7265 94.3555 35.6093C94.2122 35.4921 94.1406 35.3489 94.1406 35.1796C94.1406 34.802 94.6159 34.4179 95.5664 34.0273C96.5299 33.6236 97.3568 33.4218 98.0469 33.4218C100.156 33.4218 101.921 34.0924 103.34 35.4335C104.772 36.7747 105.488 38.5976 105.488 40.9023C105.488 42.6861 104.753 44.3268 103.281 45.8242C101.81 47.3216 100.039 48.0703 97.9688 48.0703C97.1745 48.0703 96.4193 47.9661 95.7031 47.7578C95 47.5494 94.0755 47.0676 92.9297 46.3124C92.8255 46.3124 92.7734 46.6445 92.7734 47.3085C92.7734 48.9622 92.6628 50.2187 92.4414 51.0781C92.2201 51.9505 91.8424 52.7057 91.3086 53.3437C90.7747 53.9817 90.2474 54.4309 89.7266 54.6913C89.2188 54.9648 88.724 55.1015 88.2422 55.1015C87.526 55.1015 87.168 54.9322 87.168 54.5937C87.168 54.4505 87.3307 54.2942 87.6562 54.1249C88.4375 53.6953 88.9714 53.1354 89.2578 52.4453C89.5443 51.7682 89.6875 51.1367 89.6875 50.5507ZM112.617 44.789C112.617 45.1536 112.715 45.4661 112.91 45.7265C113.105 45.9739 113.529 46.1432 114.18 46.2343C114.844 46.3255 115.247 46.4492 115.391 46.6054C115.534 46.7617 115.605 46.957 115.605 47.1913C115.605 47.608 115.234 47.8163 114.492 47.8163C114.102 47.8163 113.522 47.7773 112.754 47.6992C111.986 47.621 111.406 47.582 111.016 47.582C110.651 47.582 110.117 47.621 109.414 47.6992C108.711 47.7773 108.177 47.8163 107.812 47.8163C106.901 47.8163 106.445 47.582 106.445 47.1132C106.445 46.8919 106.51 46.7161 106.641 46.5859C106.771 46.4426 107.174 46.332 107.852 46.2538C108.542 46.1757 108.991 45.9413 109.199 45.5507C109.421 45.1601 109.531 44.7044 109.531 44.1835V23.1093C109.531 22.7838 109.421 22.4908 109.199 22.2304C108.978 21.97 108.542 21.7291 107.891 21.5078C107.24 21.2864 106.849 21.1171 106.719 20.9999C106.602 20.8828 106.543 20.7591 106.543 20.6288C106.543 20.1731 106.927 19.9453 107.695 19.9453C107.917 19.9453 108.255 19.9713 108.711 20.0234C109.167 20.0755 109.505 20.1015 109.727 20.1015C109.961 20.1015 110.286 20.0429 110.703 19.9257C111.133 19.8085 111.452 19.7499 111.66 19.7499C111.947 19.7499 112.174 19.8346 112.344 20.0038C112.526 20.1731 112.617 20.6093 112.617 21.3124V44.789ZM122.422 44.496C122.422 44.9648 122.52 45.3749 122.715 45.7265C122.923 46.065 123.346 46.2799 123.984 46.371C124.635 46.4492 125.02 46.5598 125.137 46.7031C125.267 46.8463 125.332 47.0221 125.332 47.2304C125.332 47.5299 125.234 47.7122 125.039 47.7773C124.857 47.8424 124.486 47.8749 123.926 47.8749C123.587 47.8749 123.073 47.8424 122.383 47.7773C121.693 47.7252 121.185 47.6992 120.859 47.6992C120.495 47.6992 119.954 47.7317 119.238 47.7968C118.522 47.8749 117.982 47.914 117.617 47.914C116.784 47.914 116.367 47.6341 116.367 47.0742C116.367 46.8788 116.432 46.7226 116.562 46.6054C116.693 46.4752 117.083 46.3775 117.734 46.3124C118.398 46.2343 118.835 46.0325 119.043 45.707C119.264 45.3814 119.375 44.9973 119.375 44.5546C119.375 43.8775 119.362 42.8749 119.336 41.5468C119.31 40.2187 119.297 39.2161 119.297 38.539C119.297 37.927 119.115 37.4583 118.75 37.1328C118.398 36.7942 117.897 36.6249 117.246 36.6249C116.595 36.6249 115.853 36.9374 115.02 37.5624C114.499 37.9531 114.108 38.1484 113.848 38.1484C113.717 38.1484 113.581 38.0768 113.438 37.9335C113.294 37.7903 113.223 37.6471 113.223 37.5038C113.223 36.8398 113.9 36.1041 115.254 35.2968C116.621 34.4765 117.715 34.0663 118.535 34.0663C119.329 34.0663 120.091 34.3007 120.82 34.7695C121.549 35.2382 122.038 35.8176 122.285 36.5078C122.415 36.8203 122.48 37.8945 122.48 39.7304C122.48 40.5117 122.467 41.4557 122.441 42.5624C122.428 43.6562 122.422 44.3007 122.422 44.496ZM140.664 44.1835C140.664 45.121 141.289 45.7721 142.539 46.1367C142.852 46.2278 143.079 46.332 143.223 46.4492C143.379 46.5663 143.457 46.7877 143.457 47.1132C143.457 47.2825 143.353 47.4257 143.145 47.5429C142.949 47.6731 142.734 47.7382 142.5 47.7382C142.253 47.7382 141.914 47.6796 141.484 47.5624C141.068 47.4453 140.729 47.3867 140.469 47.3867C140.169 47.3867 139.792 47.4453 139.336 47.5624C138.88 47.6796 138.574 47.7382 138.418 47.7382C138.236 47.7382 138.053 47.6731 137.871 47.5429C137.702 47.4127 137.617 47.2825 137.617 47.1523C137.617 46.9439 137.552 46.8398 137.422 46.8398C137.331 46.8398 137.214 46.8854 137.07 46.9765C135.599 47.888 134.01 48.3437 132.305 48.3437C131.497 48.3437 130.592 48.1354 129.59 47.7187C128.6 47.302 127.806 46.664 127.207 45.8046C126.608 44.9322 126.309 43.858 126.309 42.582C126.309 41.2278 126.953 40.0299 128.242 38.9882C129.544 37.9466 131.217 37.4257 133.262 37.4257C133.952 37.4257 134.707 37.621 135.527 38.0117C136.361 38.3893 136.777 38.7799 136.777 39.1835C136.777 39.3788 136.693 39.5351 136.523 39.6523C136.354 39.7695 136.146 39.8281 135.898 39.8281C135.729 39.8281 135.397 39.7109 134.902 39.4765C134.408 39.2291 133.9 39.1054 133.379 39.1054C132.311 39.1054 131.426 39.4244 130.723 40.0624C130.02 40.6874 129.668 41.5273 129.668 42.582C129.668 43.8059 130.072 44.7499 130.879 45.414C131.686 46.065 132.617 46.3906 133.672 46.3906C134.622 46.3906 135.495 46.0781 136.289 45.4531C137.096 44.8281 137.5 43.9947 137.5 42.9531V37.6601C137.5 36.8658 137.233 36.2213 136.699 35.7265C136.178 35.2317 135.475 34.9843 134.59 34.9843C133.457 34.9843 132.357 35.3424 131.289 36.0585C130.924 36.3059 130.677 36.4296 130.547 36.4296C130.234 36.4296 129.967 36.3515 129.746 36.1953C129.525 36.026 129.414 35.8111 129.414 35.5507C129.414 34.9127 129.993 34.3723 131.152 33.9296C132.324 33.4869 133.6 33.2656 134.98 33.2656C136.686 33.2656 138.06 33.6953 139.102 34.5546C140.143 35.414 140.664 36.4361 140.664 37.621V44.1835ZM150.664 43.1484C150.664 44.2421 150.716 44.9453 150.82 45.2578C150.924 45.5572 151.113 45.707 151.387 45.707C151.816 45.707 152.344 45.4726 152.969 45.0038C153.594 44.5351 154.01 44.3007 154.219 44.3007C154.388 44.3007 154.538 44.3788 154.668 44.5351C154.798 44.6913 154.863 44.8801 154.863 45.1015C154.863 45.4661 154.349 46.0716 153.32 46.9179C152.305 47.7643 151.406 48.1874 150.625 48.1874C148.568 48.1874 147.539 46.677 147.539 43.6562V36.1367C147.539 35.8893 147.507 35.7591 147.441 35.746C147.376 35.72 147.012 35.707 146.348 35.707C145.827 35.707 145.475 35.6354 145.293 35.4921C145.111 35.3359 145.02 35.1145 145.02 34.8281C145.02 34.5807 145.085 34.4049 145.215 34.3007C145.358 34.1966 145.625 34.0924 146.016 33.9882C146.419 33.871 146.725 33.7408 146.934 33.5976C147.155 33.4413 147.454 33.1288 147.832 32.6601C148.223 32.1783 148.496 31.5078 148.652 30.6484C148.822 29.789 148.906 28.552 148.906 26.9374C148.906 26.1692 149.115 25.7851 149.531 25.7851C150 25.7851 150.293 25.8958 150.41 26.1171C150.527 26.3255 150.586 26.6835 150.586 27.1913V33.7148C150.586 33.9752 150.755 34.1054 151.094 34.1054H153.867C154.427 34.1054 154.707 34.3463 154.707 34.8281C154.707 35.388 154.303 35.6679 153.496 35.6679H151.055C150.872 35.6679 150.762 35.7005 150.723 35.7656C150.684 35.8176 150.664 35.9609 150.664 36.1953V43.1484Z" fill="#AB2C23"/>
</svg>
